<?xml version="1.0" encoding="utf-8"?>
<!-- Generator: Adobe Illustrator 16.0.0, SVG Export Plug-In . SVG Version: 6.00 Build 0)  -->
<!DOCTYPE svg PUBLIC "-//W3C//DTD SVG 1.1//EN" "http://www.w3.org/Graphics/SVG/1.1/DTD/svg11.dtd">
<svg version="1.1" id="Layer_1" xmlns="http://www.w3.org/2000/svg" xmlns:xlink="http://www.w3.org/1999/xlink" x="0px" y="0px"
	 width="960px" height="560px" viewBox="0 0 960 560" enable-background="new 0 0 960 560" xml:space="preserve">
<g>
	<polygon fill="#FFFFFF" points="279.094,447.422 317.76,447.363 317.36,181.476 318.22,181.475 478.869,447.123 523.55,447.055 
		523.052,115.738 484.387,115.797 484.79,384.469 483.932,384.471 321.988,116.041 278.596,116.106 	"/>
	<path fill="#FFFFFF" d="M699.972,448.465l39.339-0.729l30.267-100.027l121.226-2.252l33.157,98.848l42.147-0.783l-118.129-328.12
		l-42.147,0.783L699.972,448.465L699.972,448.465z M826.64,155.583l0.804-0.015l50.63,153.114l-97.143,1.806L826.64,155.583
		L826.64,155.583z"/>
	<path fill="#FFFFFF" d="M277.188,446.693l-42.155,0.129l-34.722-100.486l-129.904,0.4L37.165,447.434L-8,447.572l118.981-334.433
		L156.147,113L277.188,446.693L277.188,446.693z M134.763,153.304l-0.86,0.002L83.196,309.268l104.096-0.321L134.763,153.304
		L134.763,153.304z"/>
	<polygon fill="#FFFFFF" points="545.812,115.432 736.974,115.423 736.976,156.099 583.146,156.106 583.15,256.889 718.407,256.883 
		718.409,296.428 583.152,296.436 583.159,447.385 545.827,447.387 	"/>
</g>
</svg>
